<?xml version="1.0" encoding="UTF-8" standalone="no"?>
<!DOCTYPE svg PUBLIC "-//W3C//DTD SVG 1.1//EN" "http://www.w3.org/Graphics/SVG/1.1/DTD/svg11.dtd">
<svg width="100%" height="100%" viewBox="0 0 1536 1536" version="1.1" xmlns="http://www.w3.org/2000/svg" xmlns:xlink="http://www.w3.org/1999/xlink" xml:space="preserve" xmlns:serif="http://www.serif.com/" style="fill-rule:evenodd;clip-rule:evenodd;stroke-linejoin:round;stroke-miterlimit:2;">
    <g transform="matrix(41.5637,0,0,41.4425,767.244,768.311)">
        <g id="Extended_Heavy_Mag" transform="matrix(1,0,0,1,-18.5,-18.5)">
            <g>
                <path d="M11.4,31.8C11.2,31.8 10.9,31.7 10.7,31.6L7.5,29.9C7.1,29.7 7,29.5 7,29.1C6.9,27.6 6.2,26.9 5.8,26.6C5.6,26.4 5.4,26.2 5.4,25.9L5.5,23.4C5.5,23.3 5.5,23.2 5.6,23L3.8,19.8C3.5,19.9 3.1,20 2.8,20L1,20.1C0.5,20.1 0.1,20.7 0.3,21.2L6.9,35.6C7.1,36 7.5,36.1 7.9,36C8.8,35.7 10.4,35.1 12.3,34.3L11.4,31.8Z" style="fill:rgb(72,55,55);fill-rule:nonzero;"/>
                <path d="M36.1,4.5L30.8,2.3L26.7,2.3L22.8,1C22.3,0.8 21.8,1 21.5,1.5C20,5 13.9,16.9 4.5,19.7L5.9,22.2C6.1,21.8 6.5,21.5 6.9,21.3C7.4,21.8 8.3,21.8 9.1,21.4C9.8,21 10.2,20.3 10.2,19.6C12.1,18.4 13.9,16.8 15.4,15.2C15.9,15.3 16.5,15.1 16.9,14.7C17.6,14.1 17.9,13.2 17.6,12.6C19.9,9.6 21.7,6.6 22.8,4.4C23.1,3.9 23.6,3.7 24.2,3.8L26.5,4.6L30.5,4.6L33.5,5.8C33.9,6 34.2,6.6 34,7.2C33.3,9.1 32.1,11.5 30.7,14C30,13.9 29.2,14.5 28.9,15.4C28.7,15.9 28.7,16.5 28.9,16.9C27.5,19 26,21.1 24.6,22.9C24,22.7 23.2,22.9 22.7,23.5C22,24.2 21.9,25 22.2,25.7C22.1,25.8 22,26 21.8,26.1C20.5,27.4 18.8,28.6 16.8,29.7C16.2,29.3 15.2,29.3 14.2,29.9C13.3,30.4 12.8,31.1 12.7,31.8C12.5,31.9 12.3,31.9 12.1,31.9L13,34C16.5,32.5 20.7,30.3 23.4,27.6C28.3,22.7 35.9,11 36.7,5.6C36.8,5.1 36.5,4.6 36.1,4.5Z" style="fill:rgb(36,28,28);fill-rule:nonzero;"/>
                <g>
                    <circle cx="18.7" cy="19.8" r="2.6" style="fill:rgb(72,55,55);"/>
                </g>
                <path d="M33.1,6.4L30.2,5.2L26.2,5.2L23.7,4.4C23.5,4.4 23.4,4.5 23.3,4.6C22.3,6.6 20.6,9.6 18.3,12.6C18.5,13.5 18.1,14.5 17.3,15.1C16.8,15.5 16.2,15.7 15.6,15.8C14,17.5 12.4,18.8 10.8,19.9C10.7,20.7 10.2,21.5 9.4,21.9C8.9,22.2 8.4,22.3 7.9,22.3C7.5,22.3 7.2,22.2 6.9,22.1C6.5,22.4 6.3,22.9 6.3,23.4L6.2,25.5C6.2,25.7 6.3,26 6.5,26.1C7,26.5 7.6,27.3 7.8,28.6C7.8,28.9 8,29.1 8.2,29.3L11.1,30.8C11.4,30.9 11.6,31 11.9,31L12.2,31C12.5,30.3 13.1,29.6 13.9,29.1C14.5,28.7 15.2,28.5 15.9,28.5C16.3,28.5 16.6,28.6 16.9,28.7C18.8,27.6 20.3,26.5 21.4,25.4C21.2,24.6 21.5,23.6 22.2,22.9C22.8,22.3 23.5,22 24.2,22L24.3,22C25.6,20.4 26.9,18.6 28.1,16.7C28,16.2 28,15.6 28.2,15C28.5,14 29.4,13.3 30.3,13.2C31.7,10.7 32.8,8.5 33.4,6.8C33.4,6.7 33.3,6.5 33.1,6.4ZM23.1,7.3L24.9,9.9L24.4,10.9L22.6,8.3L23.1,7.3ZM12.8,20.3L13.3,23.5L12.4,24.2L11.9,21L12.8,20.3ZM9.3,26L9,22.9L9.9,22.3L10.2,25.5L9.3,26ZM13.4,29.1L10.6,27.6L11.5,27L14.3,28.5L13.4,29.1ZM16.6,27L13.7,25.6L14.6,25L17.5,26.4L16.6,27ZM18.7,23.2C16.8,23.2 15.3,21.7 15.3,19.8C15.3,17.9 16.8,16.4 18.7,16.4C20.6,16.4 22.1,17.9 22.1,19.8C22.1,21.7 20.5,23.2 18.7,23.2ZM22.2,14.1L20.6,11.3L21.2,10.4L22.8,13.2L22.2,14.1ZM27.1,15.3L23.9,15L24.5,14.1L27.7,14.4L27.1,15.3ZM29.4,11.7L26.2,11.7L26.7,10.7L29.9,10.7L29.4,11.7Z" style="fill:rgb(36,28,28);fill-rule:nonzero;"/>
            </g>
        </g>
        <g id="Extended_Heavy_Mag1" serif:id="Extended_Heavy_Mag">
        </g>
    </g>
</svg>
